<?xml version="1.0" encoding="UTF-8" standalone="no"?>
<!-- Created with Inkscape (http://www.inkscape.org/) -->

<svg
   xmlns:dc="http://purl.org/dc/elements/1.1/"
   xmlns:cc="http://creativecommons.org/ns#"
   xmlns:rdf="http://www.w3.org/1999/02/22-rdf-syntax-ns#"
   xmlns:svg="http://www.w3.org/2000/svg"
   xmlns="http://www.w3.org/2000/svg"
   xmlns:sodipodi="http://sodipodi.sourceforge.net/DTD/sodipodi-0.dtd"
   xmlns:inkscape="http://www.inkscape.org/namespaces/inkscape"
   width="220mm"
   height="82mm"
   viewBox="0 0 220 82"
   version="1.1"
   id="svg8"
   inkscape:version="0.92.4 (5da689c313, 2019-01-14)"
   sodipodi:docname="learnWithSkersys.svg">
  <defs
     id="defs2" />
  <sodipodi:namedview
     id="base"
     pagecolor="#000000"
     bordercolor="#666666"
     borderopacity="1.0"
     inkscape:pageopacity="0"
     inkscape:pageshadow="2"
     inkscape:zoom="0.7"
     inkscape:cx="295.72494"
     inkscape:cy="271.95527"
     inkscape:document-units="mm"
     inkscape:current-layer="layer1"
     showgrid="false"
     inkscape:window-width="1611"
     inkscape:window-height="700"
     inkscape:window-x="182"
     inkscape:window-y="182"
     inkscape:window-maximized="0" />
  <metadata
     id="metadata5">
    <rdf:RDF>
      <cc:Work
         rdf:about="">
        <dc:format>image/svg+xml</dc:format>
        <dc:type
           rdf:resource="http://purl.org/dc/dcmitype/StillImage" />
        <dc:title></dc:title>
      </cc:Work>
    </rdf:RDF>
  </metadata>
  <g
     inkscape:label="Sluoksnis 1"
     inkscape:groupmode="layer"
     id="layer1"
     transform="translate(0,-215)">
    <g
       aria-label="learn with "
       transform="matrix(2.6133389,0,0,2.6133389,-1597.3993,-717.41026)"
       style="font-style:normal;font-variant:normal;font-weight:normal;font-stretch:normal;font-size:13.33333302px;line-height:1.25;font-family:'Century Gothic';-inkscape-font-specification:'Century Gothic';text-align:end;letter-spacing:0.03px;word-spacing:0px;text-anchor:end;fill:#ffffff;fill-opacity:1;stroke:none"
       id="flowRoot815">
      <path
         d="m 623.58938,359.09197 h 0.91145 v 9.81771 h -0.91145 z"
         id="path841"
         inkscape:connector-curvature="0" />
      <path
         d="m 632.40193,366.55942 0.76823,0.40365 q -0.37761,0.74219 -0.8724,1.19791 -0.49479,0.45573 -1.11328,0.69662 -0.61849,0.23437 -1.39974,0.23437 -1.73177,0 -2.70833,-1.13281 -0.97656,-1.13932 -0.97656,-2.57161 0,-1.34766 0.82682,-2.40235 1.04818,-1.34114 2.80599,-1.34114 1.80989,0 2.89062,1.3737 0.76823,0.97005 0.78125,2.42187 h -6.36718 q 0.026,1.23698 0.78776,2.03125 0.76171,0.78776 1.88151,0.78776 0.54036,0 1.04817,-0.1888 0.51433,-0.1888 0.8724,-0.5013 0.35807,-0.3125 0.77474,-1.00912 z m 0,-1.90755 q -0.18229,-0.72917 -0.53386,-1.16536 -0.34505,-0.4362 -0.91796,-0.70313 -0.57292,-0.26693 -1.20443,-0.26693 -1.04167,0 -1.79037,0.67058 -0.54687,0.48828 -0.82682,1.46484 z"
         id="path843"
         inkscape:connector-curvature="0" />
      <path
         d="m 642.19755,361.82635 v 7.08333 h -0.89843 v -1.21745 q -0.57292,0.69662 -1.28907,1.04818 -0.70963,0.35156 -1.55599,0.35156 -1.5039,0 -2.57161,-1.08724 -1.0612,-1.09375 -1.0612,-2.65625 0,-1.52994 1.07422,-2.61718 1.07422,-1.08724 2.58464,-1.08724 0.87239,0 1.57552,0.37109 0.70963,0.37109 1.24349,1.11328 v -1.30208 z m -3.64583,0.69661 q -0.76172,0 -1.40625,0.37761 -0.64453,0.37109 -1.02865,1.04817 -0.3776,0.67709 -0.3776,1.4323 0,0.74869 0.38411,1.43229 0.38412,0.68359 1.02865,1.06771 0.65104,0.3776 1.39323,0.3776 0.7487,0 1.41927,-0.3776 0.67057,-0.37761 1.02865,-1.02214 0.36458,-0.64453 0.36458,-1.45182 0,-1.23047 -0.8138,-2.05729 -0.80729,-0.82683 -1.99219,-0.82683 z"
         id="path845"
         inkscape:connector-curvature="0" />
      <path
         d="m 643.93979,361.82635 h 0.93099 v 1.03516 q 0.41667,-0.61198 0.87891,-0.91146 0.46224,-0.30599 0.96354,-0.30599 0.3776,0 0.80729,0.24088 l -0.47526,0.76823 q -0.28646,-0.1237 -0.48177,-0.1237 -0.45573,0 -0.87891,0.37761 -0.42317,0.37109 -0.64453,1.15885 -0.16927,0.60547 -0.16927,2.44792 v 2.39583 h -0.93099 z"
         id="path847"
         inkscape:connector-curvature="0" />
      <path
         d="m 648.32526,361.82635 h 0.91146 v 1.26953 q 0.54688,-0.72917 1.21094,-1.08724 0.66406,-0.36458 1.44531,-0.36458 0.79427,0 1.40625,0.40364 0.61849,0.40365 0.91146,1.08724 0.29297,0.6836 0.29297,2.12891 v 3.64583 h -0.90495 v -3.3789 q 0,-1.22396 -0.10417,-1.63412 -0.16276,-0.70312 -0.61198,-1.05469 -0.44922,-0.35807 -1.17187,-0.35807 -0.82682,0 -1.48438,0.54688 -0.65104,0.54687 -0.85937,1.35416 -0.13021,0.52735 -0.13021,1.92709 v 2.59765 h -0.91146 z"
         id="path849"
         inkscape:connector-curvature="0" />
      <path
         d="m 659.25115,361.82635 h 0.9375 l 2.16797,5.14323 2.27213,-5.14323 h 0.16276 l 2.26563,5.14323 2.20703,-5.14323 h 0.95052 l -3.07292,7.08333 h -0.17578 l -2.2526,-5.07161 -2.27214,5.07161 h -0.16927 z"
         id="path851"
         inkscape:connector-curvature="0" />
      <path
         d="m 671.65094,358.90968 q 0.3125,0 0.53385,0.22136 0.22136,0.22135 0.22136,0.53385 0,0.30599 -0.22136,0.52734 -0.22135,0.22136 -0.53385,0.22136 -0.30599,0 -0.52735,-0.22136 -0.22135,-0.22135 -0.22135,-0.52734 0,-0.3125 0.22135,-0.53385 0.22136,-0.22136 0.52735,-0.22136 z m -0.45573,2.91667 h 0.91797 v 7.08333 h -0.91797 z"
         id="path853"
         inkscape:connector-curvature="0" />
      <path
         d="m 674.83849,359.19614 h 0.91797 v 2.63021 h 1.44531 v 0.78125 h -1.44531 v 6.30208 h -0.91797 V 362.6076 H 673.595 v -0.78125 h 1.24349 z"
         id="path855"
         inkscape:connector-curvature="0" />
      <path
         d="m 678.60547,359.09197 h 0.91146 v 4.00391 q 0.55338,-0.72917 1.21745,-1.08724 0.66406,-0.36458 1.4388,-0.36458 0.79427,0 1.40625,0.40364 0.61849,0.40365 0.91146,1.08724 0.29297,0.67709 0.29297,2.12891 v 3.64583 h -0.91146 v -3.3789 q 0,-1.22396 -0.0977,-1.63412 -0.16927,-0.70312 -0.61849,-1.05469 -0.44271,-0.35807 -1.16536,-0.35807 -0.82683,0 -1.48438,0.54688 -0.65104,0.54687 -0.85937,1.35416 -0.13021,0.52084 -0.13021,1.92709 v 2.59765 h -0.91146 z"
         id="path857"
         inkscape:connector-curvature="0" />
    </g>
    <g
       aria-label="skersys"
       style="font-style:normal;font-variant:normal;font-weight:normal;font-stretch:normal;font-size:34.92861176px;line-height:1.25;font-family:'Century Gothic';-inkscape-font-specification:'Century Gothic';text-align:end;letter-spacing:0.07858936px;word-spacing:0px;text-anchor:end;fill:#ffffff;fill-opacity:1;stroke:none;stroke-width:2.61964583"
       id="text829"
       transform="matrix(1.3645444,0,0,1.3645444,-27.722777,-81.923362)">
      <path
         d="m 55.585224,253.819 -2.882293,2.8823 q -1.756664,-1.73961 -3.189283,-1.73961 -0.784529,0 -1.227959,0.3411 -0.443429,0.32404 -0.443429,0.81864 0,0.37521 0.27288,0.69925 0.289934,0.30699 1.398508,0.85275 l 1.705499,0.85275 q 2.694688,1.33029 3.700932,2.71174 1.006244,1.38146 1.006244,3.24045 0,2.47297 -1.824883,4.12731 -1.807829,1.65433 -4.860671,1.65433 -4.059087,0 -6.480895,-3.17223 l 2.865238,-3.12106 q 0.818639,0.95508 1.910158,1.552 1.108574,0.57987 1.961323,0.57987 0.92097,0 1.483784,-0.44343 0.562815,-0.44343 0.562815,-1.0233 0,-1.07446 -2.029544,-2.09776 l -1.569058,-0.78453 q -4.502517,-2.26831 -4.502517,-5.67931 0,-2.20009 1.688444,-3.7521 1.705499,-1.56905 4.349022,-1.56905 1.807828,0 3.393942,0.80158 1.603168,0.78453 2.711743,2.26831 z"
         style="font-style:normal;font-variant:normal;font-weight:bold;font-stretch:normal;font-family:'Century Gothic';-inkscape-font-specification:'Century Gothic Bold';fill:#ffffff;stroke-width:2.61964583"
         id="path826"
         inkscape:connector-curvature="0" />
      <path
         d="m 59.688789,244.06355 h 4.656012 v 14.82078 l 6.856104,-7.65768 h 5.832805 l -7.981733,8.9027 8.953868,9.65312 h -5.781641 l -7.879403,-8.54455 v 8.54455 h -4.656012 z"
         style="font-style:normal;font-variant:normal;font-weight:bold;font-stretch:normal;font-family:'Century Gothic';-inkscape-font-specification:'Century Gothic Bold';fill:#ffffff;stroke-width:2.61964583"
         id="path828"
         inkscape:connector-curvature="0" />
      <path
         d="M 98.584528,261.8519 H 83.627305 q 0.324045,1.97838 1.722554,3.15517 1.415563,1.15974 3.598602,1.15974 2.609413,0 4.485461,-1.82488 l 3.922647,1.84194 q -1.466729,2.08071 -3.513327,3.08695 -2.046599,0.98919 -4.860671,0.98919 -4.366077,0 -7.11193,-2.74585 -2.745852,-2.76291 -2.745852,-6.90727 0,-4.24669 2.728797,-7.04371 2.745853,-2.81407 6.87316,-2.81407 4.383131,0 7.128984,2.81407 2.745853,2.79702 2.745853,7.40186 z m -4.673066,-3.66682 q -0.460485,-1.552 -1.824884,-2.52414 -1.347344,-0.97213 -3.138117,-0.97213 -1.944269,0 -3.410998,1.09152 -0.920969,0.6822 -1.705498,2.40475 z"
         style="font-style:normal;font-variant:normal;font-weight:bold;font-stretch:normal;font-family:'Century Gothic';-inkscape-font-specification:'Century Gothic Bold';fill:#ffffff;stroke-width:2.61964583"
         id="path830"
         inkscape:connector-curvature="0" />
      <path
         d="m 101.3578,251.22665 h 3.99087 v 2.33653 q 0.64809,-1.38146 1.72256,-2.09776 1.07446,-0.71631 2.35358,-0.71631 0.90392,0 1.89311,0.47754 l -1.44968,4.00792 q -0.81864,-0.40932 -1.34734,-0.40932 -1.07447,0 -1.82488,1.33029 -0.73337,1.33029 -0.73337,5.21882 l 0.0171,0.90392 v 7.50419 h -4.62191 z"
         style="font-style:normal;font-variant:normal;font-weight:bold;font-stretch:normal;font-family:'Century Gothic';-inkscape-font-specification:'Century Gothic Bold';fill:#ffffff;stroke-width:2.61964583"
         id="path832"
         inkscape:connector-curvature="0" />
      <path
         d="m 125.0746,253.819 -2.88229,2.8823 q -1.75666,-1.73961 -3.18928,-1.73961 -0.78453,0 -1.22796,0.3411 -0.44343,0.32404 -0.44343,0.81864 0,0.37521 0.27288,0.69925 0.28993,0.30699 1.39851,0.85275 l 1.7055,0.85275 q 2.69468,1.33029 3.70093,2.71174 1.00624,1.38146 1.00624,3.24045 0,2.47297 -1.82488,4.12731 -1.80783,1.65433 -4.86067,1.65433 -4.05909,0 -6.4809,-3.17223 l 2.86524,-3.12106 q 0.81864,0.95508 1.91016,1.552 1.10857,0.57987 1.96132,0.57987 0.92097,0 1.48379,-0.44343 0.56281,-0.44343 0.56281,-1.0233 0,-1.07446 -2.02954,-2.09776 l -1.56906,-0.78453 q -4.50252,-2.26831 -4.50252,-5.67931 0,-2.20009 1.68845,-3.7521 1.7055,-1.56905 4.34902,-1.56905 1.80783,0 3.39394,0.80158 1.60317,0.78453 2.71174,2.26831 z"
         style="font-style:normal;font-variant:normal;font-weight:bold;font-stretch:normal;font-family:'Century Gothic';-inkscape-font-specification:'Century Gothic Bold';fill:#ffffff;stroke-width:2.61964583"
         id="path834"
         inkscape:connector-curvature="0" />
      <path
         d="m 127.08041,251.22665 h 4.75834 l 4.82656,11.64855 5.32115,-11.64855 h 4.7754 l -11.6315,25.34371 h -4.80951 l 3.82032,-8.16934 z"
         style="font-style:normal;font-variant:normal;font-weight:bold;font-stretch:normal;font-family:'Century Gothic';-inkscape-font-specification:'Century Gothic Bold';fill:#ffffff;stroke-width:2.61964583"
         id="path836"
         inkscape:connector-curvature="0" />
      <path
         d="m 160.84259,253.819 -2.88229,2.8823 q -1.75666,-1.73961 -3.18928,-1.73961 -0.78453,0 -1.22796,0.3411 -0.44343,0.32404 -0.44343,0.81864 0,0.37521 0.27288,0.69925 0.28993,0.30699 1.39851,0.85275 l 1.7055,0.85275 q 2.69468,1.33029 3.70093,2.71174 1.00624,1.38146 1.00624,3.24045 0,2.47297 -1.82488,4.12731 -1.80783,1.65433 -4.86067,1.65433 -4.05909,0 -6.4809,-3.17223 l 2.86524,-3.12106 q 0.81864,0.95508 1.91016,1.552 1.10857,0.57987 1.96132,0.57987 0.92097,0 1.48379,-0.44343 0.56281,-0.44343 0.56281,-1.0233 0,-1.07446 -2.02954,-2.09776 l -1.56906,-0.78453 q -4.50252,-2.26831 -4.50252,-5.67931 0,-2.20009 1.68845,-3.7521 1.7055,-1.56905 4.34902,-1.56905 1.80783,0 3.39394,0.80158 1.60317,0.78453 2.71174,2.26831 z"
         style="font-style:normal;font-variant:normal;font-weight:bold;font-stretch:normal;font-family:'Century Gothic';-inkscape-font-specification:'Century Gothic Bold';fill:#ffffff;stroke-width:2.61964583"
         id="path838"
         inkscape:connector-curvature="0" />
    </g>
    <flowRoot
       xml:space="preserve"
       id="flowRoot831"
       style="font-style:normal;font-variant:normal;font-weight:normal;font-stretch:normal;font-size:13.33333302px;line-height:1.25;font-family:'Century Gothic';-inkscape-font-specification:'Century Gothic';text-align:end;letter-spacing:0.03px;word-spacing:0px;text-anchor:end;fill:#000000;fill-opacity:1;stroke:none"
       transform="scale(0.26458333)"><flowRegion
         id="flowRegion833"><rect
           id="rect835"
           width="170"
           height="334.28571"
           x="67.14286"
           y="313.94824" /></flowRegion><flowPara
         id="flowPara837" /></flowRoot>    <g
       aria-label="{ "
       transform="matrix(2.6133389,0,0,2.6133389,-1770.7579,-719.17773)"
       style="font-style:normal;font-variant:normal;font-weight:normal;font-stretch:normal;font-size:13.33333302px;line-height:1.25;font-family:'Century Gothic';-inkscape-font-specification:'Century Gothic';text-align:end;letter-spacing:0.03px;word-spacing:0px;text-anchor:end;fill:#ffffff;fill-opacity:1;stroke:none"
       id="flowRoot815-1">
      <path
         d="m 681.23933,371.69328 c 0.26475,-0.009 0.4796,-0.0608 0.64453,-0.15625 0.21267,-0.12587 0.37326,-0.29948 0.48177,-0.52084 0.11285,-0.22135 0.18012,-0.53385 0.20182,-0.9375 0.009,-0.19965 0.0152,-7.2888 0.0195,-8.00495 0.009,-0.71614 0.0564,-1.22829 0.14323,-1.53645 0.0868,-0.30816 0.22136,-0.55339 0.40365,-0.73568 0.18229,-0.18229 0.41449,-0.31467 0.69661,-0.39714 0.16927,-0.0477 0.44054,-0.0716 0.8138,-0.0716 h 0.36459 V 360.355 H 684.807 c -0.45573,0 -0.75737,0.0846 -0.90494,0.25391 -0.14323,0.16493 -0.21485,0.52735 -0.21485,1.08724 0,1.01129 -0.0152,8.28707 -0.0456,8.56484 -0.0564,0.53386 -0.18444,0.94402 -0.38412,1.23047 -0.19531,0.28212 -0.50564,0.52518 -0.93099,0.72917 0.47743,0.204 0.82249,0.51216 1.03516,0.92448 0.21701,0.40799 0.32552,7.70981 0.32552,8.64297 0,0.83334 0.009,1.32596 0.026,1.47786 0.0261,0.23438 0.0803,0.4145 0.16276,0.54037 0.0607,0.0868 0.15622,0.15408 0.28646,0.20182 0.13455,0.0521 0.41667,0.0781 0.84636,0.0781 v 1.02214 h -0.36459 c -0.43403,0 -0.75087,-0.0369 -0.95052,-0.11068 -0.2908,-0.1085 -0.52517,-0.28428 -0.70312,-0.52734 -0.17361,-0.23871 -0.28646,-0.55989 -0.33854,-0.96354 -0.0391,-0.28646 -0.0608,-0.82031 -0.0651,-1.60156 -0.005,-0.79861 -0.0502,-7.97023 -0.13672,-8.25235 -0.0825,-0.28212 -0.22569,-0.49913 -0.42968,-0.65104 -0.20399,-0.15625 -0.46441,-0.23872 -0.78125,-0.2474 z"
         id="path866"
         inkscape:connector-curvature="0"
         sodipodi:nodetypes="ccccccccsccscsccccscccccscccccccc" />
    </g>
    <path
       style="font-style:normal;font-variant:normal;font-weight:normal;font-stretch:normal;font-size:13.33333302px;line-height:1.25;font-family:'Century Gothic';-inkscape-font-specification:'Century Gothic';text-align:end;letter-spacing:0.03px;word-spacing:0px;text-anchor:end;fill:#ffffff;fill-opacity:1;stroke:none;stroke-width:2.61333919"
       d="m 211.87037,252.73049 c -0.69188,-0.0235 -1.25337,-0.15889 -1.68438,-0.40834 -0.55578,-0.32894 -0.97546,-0.78264 -1.25903,-1.36112 -0.29492,-0.57847 -0.47072,-1.39514 -0.52742,-2.45001 -0.0235,-0.52175 -0.0397,-19.04812 -0.0509,-20.91964 -0.0235,-1.87152 -0.1474,-3.20996 -0.37431,-4.01527 -0.22684,-0.80533 -0.57848,-1.4462 -1.05487,-1.92259 -0.47639,-0.47639 -1.0832,-0.82234 -1.82048,-1.03786 -0.44236,-0.12472 -1.15128,-0.18712 -2.12674,-0.18712 h -0.95279 v 2.67118 h 0.52745 c 1.19097,0 1.97926,0.22108 2.36492,0.66355 0.37431,0.43102 0.56147,1.37815 0.56147,2.84134 0,2.64283 0.0397,21.65691 0.11912,22.38282 0.1474,1.39515 0.48201,2.46705 1.00384,3.21563 0.51041,0.73728 1.32141,1.37248 2.433,1.90558 -1.24769,0.53311 -2.14945,1.33844 -2.70522,2.41598 -0.56714,1.06621 -0.8507,20.14834 -0.8507,22.587 0,2.1778 -0.0235,3.46519 -0.068,3.86215 -0.0682,0.61252 -0.20984,1.08323 -0.42534,1.41217 -0.15863,0.22684 -0.40826,0.40266 -0.74862,0.52742 -0.35162,0.13618 -1.0889,0.20411 -2.21183,0.20411 v 2.67119 h 0.95281 c 1.13426,0 1.96227,-0.0965 2.48403,-0.28924 0.75996,-0.28355 1.37245,-0.74291 1.83748,-1.37812 0.45371,-0.62383 0.74862,-1.46318 0.88473,-2.51805 0.10221,-0.74862 0.15889,-2.14375 0.17012,-4.18543 0.0137,-2.08703 0.13113,-20.82891 0.35731,-21.56618 0.21559,-0.73728 0.58979,-1.3044 1.12289,-1.70139 0.5331,-0.40834 1.21367,-0.62385 2.04168,-0.64654 z"
       id="path866-8"
       inkscape:connector-curvature="0"
       sodipodi:nodetypes="ccccccccsccscsccccscccccscccccccc" />
  </g>
</svg>
