<?xml version="1.0" encoding="UTF-8" standalone="no"?>
<svg
   xmlns:dc="http://purl.org/dc/elements/1.1/"
   xmlns:cc="http://creativecommons.org/ns#"
   xmlns:rdf="http://www.w3.org/1999/02/22-rdf-syntax-ns#"
   xmlns:svg="http://www.w3.org/2000/svg"
   xmlns="http://www.w3.org/2000/svg"
   xmlns:sodipodi="http://sodipodi.sourceforge.net/DTD/sodipodi-0.dtd"
   xmlns:inkscape="http://www.inkscape.org/namespaces/inkscape"
   width="2500"
   height="2500"
   viewBox="0 0 1052 1052"
   version="1.1"
   id="svg6"
   sodipodi:docname="Back-end.svg"
   inkscape:version="0.92.4 (5da689c313, 2019-01-14)">
  <metadata
     id="metadata12">
    <rdf:RDF>
      <cc:Work
         rdf:about="">
        <dc:format>image/svg+xml</dc:format>
        <dc:type
           rdf:resource="http://purl.org/dc/dcmitype/StillImage" />
        <dc:title></dc:title>
      </cc:Work>
    </rdf:RDF>
  </metadata>
  <defs
     id="defs10" />
  <sodipodi:namedview
     pagecolor="#ffffff"
     bordercolor="#666666"
     borderopacity="1"
     objecttolerance="10"
     gridtolerance="10"
     guidetolerance="10"
     inkscape:pageopacity="0"
     inkscape:pageshadow="2"
     inkscape:window-width="1378"
     inkscape:window-height="654"
     id="namedview8"
     showgrid="false"
     inkscape:zoom="0.0944"
     inkscape:cx="1907.7392"
     inkscape:cy="1966.0776"
     inkscape:window-x="0"
     inkscape:window-y="0"
     inkscape:window-maximized="0"
     inkscape:current-layer="svg6" />
  <path
     inkscape:connector-curvature="0"
     d="m 558.46587,987.04611 h -45.75688 v -722.0396 h 45.75688 v 722.0396"
     style="fill:#546d7b;fill-opacity:1;fill-rule:nonzero;stroke:none;stroke-width:1.806409"
     id="path340" />
  <path
     inkscape:connector-curvature="0"
     d="M 60.023835,987.04611 V 941.28984 H 1011.151 v 45.75627 H 60.023835"
     style="fill:#546d7b;fill-opacity:1;fill-rule:nonzero;stroke:none;stroke-width:1.806409"
     id="path342" />
  <path
     inkscape:connector-curvature="0"
     d="m 439.44049,1002.2021 v -76.06788 h 192.27452 v 76.06788 H 439.44049"
     style="fill:#9fbecf;fill-opacity:1;fill-rule:nonzero;stroke:none;stroke-width:1.806409"
     id="path344" />
  <path
     inkscape:connector-curvature="0"
     d="M 924.0287,270.33527 H 147.1268 c -48.103924,0 -87.102965,-39.00028 -87.102965,-87.12297 v -37.68185 c 0,-48.104648 38.999041,-87.104949 87.102965,-87.104949 h 776.9019 c 48.1233,0 87.1223,39.000301 87.1223,87.104949 v 37.68185 c 0,48.12269 -38.999,87.12297 -87.1223,87.12297"
     style="fill:#38b5fd;fill-opacity:1;fill-rule:nonzero;stroke:none;stroke-width:1.806409"
     id="path346" />
  <path
     inkscape:connector-curvature="0"
     d="m 1011.151,183.2123 v -37.68185 c 0,-33.7797 -19.45596,-62.754475 -47.58229,-77.20563 L 105.77745,259.44273 c 12.35696,6.71994 26.30088,10.89254 41.34935,10.89254 h 776.9019 c 48.1233,0 87.1223,-39.00028 87.1223,-87.12297"
     style="fill:#0998ea;fill-opacity:1;fill-rule:nonzero;stroke:none;stroke-width:1.806409"
     id="path348" />
  <path
     inkscape:connector-curvature="0"
     d="m 226.58977,164.37153 c 0,27.15022 -21.99955,49.15232 -49.15038,49.15232 -27.13169,0 -49.13427,-22.0021 -49.13427,-49.15232 0,-27.13251 22.00258,-49.13428 49.13427,-49.13428 27.15083,0 49.15038,22.00177 49.15038,49.13428"
     style="fill:#ffffff;fill-opacity:1;fill-rule:nonzero;stroke:none;stroke-width:1.806409"
     id="path350" />
  <path
     inkscape:connector-curvature="0"
     d="M 702.90671,222.15848 H 663.43439 V 106.60262 h 39.47232 v 115.55586"
     style="fill:#546d7b;fill-opacity:1;fill-rule:nonzero;stroke:none;stroke-width:1.806409"
     id="path352" />
  <path
     inkscape:connector-curvature="0"
     d="M 811.52311,222.15848 H 772.05405 V 106.60262 h 39.46906 v 115.55586"
     style="fill:#546d7b;fill-opacity:1;fill-rule:nonzero;stroke:none;stroke-width:1.806409"
     id="path354" />
  <path
     inkscape:connector-curvature="0"
     d="M 920.14278,222.15848 H 880.67372 V 106.60262 h 39.46906 v 115.55586"
     style="fill:#546d7b;fill-opacity:1;fill-rule:nonzero;stroke:none;stroke-width:1.806409"
     id="path356" />
  <path
     inkscape:connector-curvature="0"
     d="M 924.0287,531.59631 H 147.1268 c -48.103924,0 -87.102965,-39.00027 -87.102965,-87.10492 v -37.68188 c 0,-48.12267 38.999041,-87.12294 87.102965,-87.12294 h 776.9019 c 48.1233,0 87.1223,39.00027 87.1223,87.12294 v 37.68188 c 0,48.10465 -38.999,87.10492 -87.1223,87.10492"
     style="fill:#38b5fd;fill-opacity:1;fill-rule:nonzero;stroke:none;stroke-width:1.806409"
     id="path358" />
  <path
     inkscape:connector-curvature="0"
     d="m 1011.151,444.49139 v -37.68188 c 0,-33.79772 -19.45596,-62.77249 -47.58229,-77.22398 L 105.77745,520.70378 c 12.35696,6.71961 26.30088,10.89253 41.34935,10.89253 h 776.9019 c 48.1233,0 87.1223,-39.00027 87.1223,-87.10492"
     style="fill:#0998ea;fill-opacity:1;fill-rule:nonzero;stroke:none;stroke-width:1.806409"
     id="path360" />
  <path
     inkscape:connector-curvature="0"
     d="m 226.58977,425.65029 c 0,27.13251 -21.99955,49.1346 -49.15038,49.1346 -27.13169,0 -49.13427,-22.00209 -49.13427,-49.1346 0,-27.15023 22.00258,-49.15232 49.13427,-49.15232 27.15083,0 49.15038,22.00209 49.15038,49.15232"
     style="fill:#ffffff;fill-opacity:1;fill-rule:nonzero;stroke:none;stroke-width:1.806409"
     id="path362" />
  <path
     inkscape:connector-curvature="0"
     d="m 702.90671,483.41953 h -39.47232 v -115.5562 h 39.47232 v 115.5562"
     style="fill:#546d7b;fill-opacity:1;fill-rule:nonzero;stroke:none;stroke-width:1.806409"
     id="path364" />
  <path
     inkscape:connector-curvature="0"
     d="m 811.52311,483.41953 h -39.46906 v -115.5562 h 39.46906 v 115.5562"
     style="fill:#546d7b;fill-opacity:1;fill-rule:nonzero;stroke:none;stroke-width:1.806409"
     id="path366" />
  <path
     inkscape:connector-curvature="0"
     d="m 920.14278,483.41953 h -39.46906 v -115.5562 h 39.46906 v 115.5562"
     style="fill:#546d7b;fill-opacity:1;fill-rule:nonzero;stroke:none;stroke-width:1.806409"
     id="path368" />
  <path
     inkscape:connector-curvature="0"
     d="M 924.0287,792.85736 H 147.1268 c -48.103924,0 -87.102965,-39.00061 -87.102965,-87.10526 v -37.68154 c 0,-48.10466 38.999041,-87.10493 87.102965,-87.10493 h 776.9019 c 48.1233,0 87.1223,39.00027 87.1223,87.10493 v 37.68154 c 0,48.10465 -38.999,87.10526 -87.1223,87.10526"
     style="fill:#38b5fd;fill-opacity:1;fill-rule:nonzero;stroke:none;stroke-width:1.806409"
     id="path370" />
  <path
     inkscape:connector-curvature="0"
     d="m 1011.151,705.7521 v -37.68154 c 0,-33.79805 -19.45596,-62.77283 -47.58229,-77.20597 l -857.79126,191.0999 c 12.35696,6.73798 26.30088,10.89287 41.34935,10.89287 h 776.9019 c 48.1233,0 87.1223,-39.00061 87.1223,-87.10526"
     style="fill:#0998ea;fill-opacity:1;fill-rule:nonzero;stroke:none;stroke-width:1.806409"
     id="path372" />
  <path
     inkscape:connector-curvature="0"
     d="m 226.58977,686.91133 c 0,27.13221 -21.99955,49.13428 -49.15038,49.13428 -27.13169,0 -49.13427,-22.00207 -49.13427,-49.13428 0,-27.15023 22.00258,-49.15232 49.13427,-49.15232 27.15083,0 49.15038,22.00209 49.15038,49.15232"
     style="fill:#ffffff;fill-opacity:1;fill-rule:nonzero;stroke:none;stroke-width:1.806409"
     id="path374" />
  <path
     inkscape:connector-curvature="0"
     d="m 702.90671,744.68027 h -39.47232 v -115.5559 h 39.47232 v 115.5559"
     style="fill:#546d7b;fill-opacity:1;fill-rule:nonzero;stroke:none;stroke-width:1.806409"
     id="path376" />
  <path
     inkscape:connector-curvature="0"
     d="m 811.52311,744.68027 h -39.46906 v -115.5559 h 39.46906 v 115.5559"
     style="fill:#546d7b;fill-opacity:1;fill-rule:nonzero;stroke:none;stroke-width:1.806409"
     id="path378" />
  <path
     inkscape:connector-curvature="0"
     d="m 920.14278,744.68027 h -39.46906 v -115.5559 h 39.46906 v 115.5559"
     style="fill:#546d7b;fill-opacity:1;fill-rule:nonzero;stroke:none;stroke-width:1.806409"
     id="path380" />
</svg>
