<?xml version="1.0" encoding="UTF-8" standalone="no"?>
<svg
   xmlns:dc="http://purl.org/dc/elements/1.1/"
   xmlns:cc="http://creativecommons.org/ns#"
   xmlns:rdf="http://www.w3.org/1999/02/22-rdf-syntax-ns#"
   xmlns:svg="http://www.w3.org/2000/svg"
   xmlns="http://www.w3.org/2000/svg"
   xmlns:sodipodi="http://sodipodi.sourceforge.net/DTD/sodipodi-0.dtd"
   xmlns:inkscape="http://www.inkscape.org/namespaces/inkscape"
   height="2500"
   viewBox="0.15 0.13 799.7 800.01668"
   width="2500"
   version="1.1"
   id="svg4"
   sodipodi:docname="Tailwind CSS.svg"
   inkscape:version="0.92.4 (5da689c313, 2019-01-14)">
  <metadata
     id="metadata10">
    <rdf:RDF>
      <cc:Work
         rdf:about="">
        <dc:format>image/svg+xml</dc:format>
        <dc:type
           rdf:resource="http://purl.org/dc/dcmitype/StillImage" />
        <dc:title></dc:title>
      </cc:Work>
    </rdf:RDF>
  </metadata>
  <defs
     id="defs8" />
  <sodipodi:namedview
     pagecolor="#ffffff"
     bordercolor="#666666"
     borderopacity="1"
     objecttolerance="10"
     gridtolerance="10"
     guidetolerance="10"
     inkscape:pageopacity="0"
     inkscape:pageshadow="2"
     inkscape:window-width="1289"
     inkscape:window-height="764"
     id="namedview6"
     showgrid="false"
     inkscape:zoom="0.1484"
     inkscape:cx="1125.2211"
     inkscape:cy="749.5"
     inkscape:window-x="0"
     inkscape:window-y="0"
     inkscape:window-maximized="0"
     inkscape:current-layer="svg4" />
  <path
     d="m 400,160.29334 c -106.63,0 -173.27,53.3 -199.93,159.89 39.99,-53.3 86.64,-73.28 139.95,-59.96 30.42,7.6 52.16,29.67 76.23,54.09 39.2,39.78 84.57,85.82 183.68,85.82 106.62,0 173.27,-53.3 199.92,-159.9 -39.98,53.3 -86.63,73.29 -139.95,59.97 -30.41,-7.6 -52.15,-29.67 -76.22,-54.09 -39.2,-39.78 -84.58,-85.82 -183.68,-85.82 z m -199.93,239.84 c -106.62,0 -173.27,53.3 -199.92,159.9 39.98,-53.3 86.63,-73.29 139.95,-59.96 30.41,7.61 52.15,29.67 76.22,54.08 39.2,39.78 84.58,85.83 183.68,85.83 106.63,0 173.27,-53.3 199.93,-159.9 -39.99,53.3 -86.64,73.29 -139.95,59.96 -30.42,-7.59 -52.16,-29.67 -76.23,-54.08 -39.2,-39.78 -84.57,-85.83 -183.68,-85.83 z"
     id="path2"
     inkscape:connector-curvature="0"
     style="fill:#06b6d4" />
</svg>
