<?xml version="1.0" encoding="UTF-8" standalone="no"?>
<svg
   xmlns:dc="http://purl.org/dc/elements/1.1/"
   xmlns:cc="http://creativecommons.org/ns#"
   xmlns:rdf="http://www.w3.org/1999/02/22-rdf-syntax-ns#"
   xmlns:svg="http://www.w3.org/2000/svg"
   xmlns="http://www.w3.org/2000/svg"
   xmlns:sodipodi="http://sodipodi.sourceforge.net/DTD/sodipodi-0.dtd"
   xmlns:inkscape="http://www.inkscape.org/namespaces/inkscape"
   width="59"
   height="59"
   viewBox="0 0 59 59"
   role="img"
   aria-labelledby="as871g7vgp4gmybvgeivkfu82mtth0mv"
   class="hidden lg:block h-15 w-auto text-gray-800 dark:text-gray-300"
   version="1.1"
   id="svg29"
   sodipodi:docname="The Odin Project.svg"
   style="fill:none"
   inkscape:version="0.92.4 (5da689c313, 2019-01-14)">
  <metadata
     id="metadata35">
    <rdf:RDF>
      <cc:Work
         rdf:about="">
        <dc:format>image/svg+xml</dc:format>
        <dc:type
           rdf:resource="http://purl.org/dc/dcmitype/StillImage" />
        <dc:title>Odin Logo</dc:title>
      </cc:Work>
    </rdf:RDF>
  </metadata>
  <defs
     id="defs33" />
  <sodipodi:namedview
     pagecolor="#ffffff"
     bordercolor="#666666"
     borderopacity="1"
     objecttolerance="10"
     gridtolerance="10"
     guidetolerance="10"
     inkscape:pageopacity="0"
     inkscape:pageshadow="2"
     inkscape:window-width="1440"
     inkscape:window-height="774"
     id="namedview31"
     showgrid="false"
     inkscape:zoom="1.8097561"
     inkscape:cx="-60.781811"
     inkscape:cy="94.101954"
     inkscape:window-x="0"
     inkscape:window-y="0"
     inkscape:window-maximized="0"
     inkscape:current-layer="svg29" />
  <title
     id="as871g7vgp4gmybvgeivkfu82mtth0mv">Odin Logo</title>
  <path
     d="M 16.68945,34.7331 21.1482,19.2902 h 17.8351 l 4.4587,15.4429 z"
     id="path3"
     inkscape:connector-curvature="0"
     style="clip-rule:evenodd;fill:#eed9c3;fill-rule:evenodd" />
  <ellipse
     cx="35.784901"
     cy="27.122299"
     rx="1.2600501"
     ry="1.2428401"
     id="ellipse5"
     style="fill:#353535" />
  <path
     d="m 27.446,25.7092 c 0,-0.434 -0.3569,-0.7859 -0.7967,-0.7859 -1.0113,0 -2.7459,0 -3.7571,0 -0.4399,0 -0.7967,0.3519 -0.7967,0.7859 0,0.6764 0,1.6624 0,2.4334 0,0.6509 0.535,1.1786 1.1947,1.1786 0.4093,0 0.8861,0 1.3676,0 0.7395,0 1.4484,-0.2898 1.9717,-0.8057 0.5227,-0.5154 0.8165,-1.2151 0.8165,-1.9443 0,-0.3127 0,-0.6091 0,-0.862 z"
     id="path7"
     inkscape:connector-curvature="0"
     style="clip-rule:evenodd;fill:#a78347;fill-rule:evenodd" />
  <path
     d="M 43.0004,4.5308 51.8517,0 l -4.8515,18 -4,4 z"
     id="path9"
     inkscape:connector-curvature="0"
     style="clip-rule:evenodd;fill:#e3b261;fill-rule:evenodd" />
  <path
     d="M 16.8514,4.5308 8.0001326,0 12.85156,18 l 4,4 z"
     id="path11"
     inkscape:connector-curvature="0"
     style="clip-rule:evenodd;fill:#e3b261;fill-rule:evenodd" />
  <path
     d="m 43.442,12.7438 c 0,0 -6.6881,-4.39791 -13.3763,-4.39791 -6.6881,0 -13.37625,4.39791 -13.37625,4.39791 v 13.1935 l 1.78355,3.5183 c 1.2797,-4.8627 7.0715,-6.8884 11.103,-3.8833 l 0.4897,0.365 0.4897,-0.365 c 4.0316,-3.0051 9.8234,-0.9794 11.1031,3.8833 l 1.7835,-3.5183 z"
     id="path13"
     inkscape:connector-curvature="0"
     style="clip-rule:evenodd;fill:#e3b261;fill-rule:evenodd" />
  <path
     d="m 25.6068,32.5341 -3.567,20.67 -4.91846,-3.5183 4.02666,-14.9527 z"
     id="path15"
     inkscape:connector-curvature="0"
     style="clip-rule:evenodd;fill:#d4d4d4;fill-rule:evenodd" />
  <path
     d="m 34.5243,32.5341 3.567,20.67 4.9185,-3.5183 -4.0267,-14.9527 z"
     id="path17"
     inkscape:connector-curvature="0"
     style="clip-rule:evenodd;fill:#d5d5d5;fill-rule:evenodd" />
  <path
     d="m 16.68933,25.9373 -3.56702,13.1936 4.45877,8.7958 3.56702,-13.1936 z"
     id="path19"
     inkscape:connector-curvature="0"
     style="clip-rule:evenodd;fill:#e6e6e6;fill-rule:evenodd" />
  <path
     d="M 43.4418,25.9373 47.0088,39.1309 42.55,47.9267 38.983,34.7331 Z"
     id="path21"
     inkscape:connector-curvature="0"
     style="clip-rule:evenodd;fill:#e6e6e6;fill-rule:evenodd" />
  <path
     d="m 25.6069,32.5341 -4.0129,21.5496 8.4716,4.3978 8.4717,-4.3978 -4.0129,-21.5496 -4.1261,-2.0349 -0.3327,-0.164 z"
     id="path23"
     inkscape:connector-curvature="0"
     style="clip-rule:evenodd;fill:#e6e6e6;fill-rule:evenodd" />
  <path
     d="m 31.6636,33.4137 h -3.1211 c 0,0 0,0.5211 0,1.1003 0,0.4082 0.1645,0.7991 0.457,1.0876 0.2925,0.2885 0.6889,0.4508 1.1027,0.4508 4e-4,0 0.0013,0 0.0017,0 0.4138,0 0.8102,-0.1623 1.1027,-0.4508 0.2925,-0.2885 0.457,-0.6794 0.457,-1.0876 0,-0.5792 0,-1.1003 0,-1.1003 z"
     id="path25"
     inkscape:connector-curvature="0"
     style="clip-rule:evenodd;fill:#353535;fill-rule:evenodd" />
</svg>
